# AST/ASF file generated using VICON BodyLanguage
# -----------------------------------------------
:version 1.10
:name VICON
:units
  mass 1.0
  length 0.45
  angle deg
:documentation
   .ast/.asf automatically generated from VICON data using
   VICON BodyBuilder and BodyLanguage model FoxedUp or BRILLIANT.MOD
:root
   order TX TY TZ RX RY RZ
   axis XYZ
   position 0 0 0  
   orientation 0 0 0 
:bonedata
  begin
     id 1 
     name lhipjoint
     direction 0.606768 -0.715223 0.346827 
     length 2.41543 
     axis 0 0 0  XYZ
  end
  begin
     id 2 
     name lfemur
     direction 0.34202 -0.939693 0  
     length 7.2778  
     axis 0 0 20  XYZ
    dof rx ry rz
    limits (-160.0 20.0)
           (-70.0 70.0)
           (-60.0 70.0)
  end
  begin
     id 3 
     name ltibia
     direction 0.34202 -0.939693 0   
     length 7.61811   
     axis 0 0 20   XYZ
    dof rx
    limits (-10.0 170.0)
  end
  begin
     id 4 
     name lfoot
     direction 0.0823924 -0.226371 0.97055   
     length 2.33618   
     axis -90 7.62852e-016 20   XYZ
    dof rx rz
    limits (-45.0 90.0)
           (-70.0 20.0)
  end
  begin
     id 5 
     name ltoes
     direction 1.53554e-011 -4.21934e-011 1   
     length 1.17015   
     axis -90 7.62852e-016 20   XYZ
    dof rx
    limits (-90.0 20.0)
  end
  begin
     id 6 
     name rhipjoint
     direction -0.6077 -0.714582 0.346516   
     length 2.4176  
     axis 0 0 0  XYZ 
  end
  begin
     id 7 
     name rfemur
     direction -0.34202 -0.939693 0   
     length 7.28127   
     axis 0 0 -20   XYZ
    dof rx ry rz
    limits (-160.0 20.0)
           (-70.0 70.0)
           (-70.0 60.0)
  end
  begin
     id 8 
     name rtibia
     direction -0.34202 -0.939693 0   
     length 7.77648   
     axis 0 0 -20   XYZ
    dof rx
    limits (-10.0 170.0)
 end
 begin
     id 9 
     name rfoot
     direction -0.0809463 -0.222398 0.97159   
     length 2.37533  
     axis -90 -7.62852e-016 -20   XYZ
    dof rx rz
    limits (-45.0 90.0)
           (-20.0 70.0)
  end
  begin
     id 10 
     name rtoes
     direction -1.53568e-011 -4.21714e-011 1   
     length 1.18972   
     axis -90 -7.62852e-016 -20   XYZ
    dof rx
    limits (-90.0 20.0)
  end
  begin
     id 11 
     name lowerback
     direction 0.010968 0.991932 -0.126297   
     length 2.21698   
     axis 0 0 0   XYZ
    dof rx ry rz
    limits (-20.0 45.0)
           (-30.0 30.0)
           (-30.0 30.0)
  end
  begin
     id 12 
     name upperback
     direction 0.0167007 0.997503 -0.0686276   
     length 2.22371   
     axis 0 0 0   XYZ
    dof rx ry rz
    limits (-20.0 45.0)
           (-30.0 30.0)
           (-30.0 30.0)
  end
  begin
     id 13 
     name thorax
     direction 0.0111721 0.999885 -0.0102878   
     length 2.25242   
     axis 0 0 0   XYZ
    dof rx ry rz
    limits (-20.0 45.0)
           (-30.0 30.0)
           (-30.0 30.0)
  end
  begin
     id 14 
     name lowerneck
     direction -0.0120265 0.990428 0.137508   
     length 1.57674   
     axis 0 0 0   XYZ
    dof rx ry rz
    limits (-20.0 45.0)
           (-30.0 30.0)
           (-30.0 30.0)
  end
  begin
     id 15 
     name upperneck
     direction 0.0175669 0.998907 0.0433089   
     length 1.5618   
     axis 0 0 0   XYZ
    dof rx ry rz
    limits (-20.0 45.0)
           (-30.0 30.0)
           (-30.0 30.0)
  end
  begin
     id 16
     name head
     direction 0.00754609 0.99997 0.00185367  
     length 1.60579  
     axis 0 0 0   XYZ
    dof rx ry rz
    limits (-20.0 45.0)
           (-30.0 30.0)
           (-30.0 30.0)
  end
  begin
     id 17 
     name lclavicle
     direction 0.885866 0.429166 -0.176231  
     length 3.44967  
     axis 0 0 0   XYZ
    dof ry rz
    limits (-20.0 10.0)
           (0.0 20.0)
  end
  begin
     id 18 
     name lhumerus
     direction 1 -4.48973e-011 -1.90255e-027   
     length 5.20607   
     axis 180 -30 -90   XYZ
    dof rx ry rz
    limits (-60.0 90.0)
           (-90.0 90.0)
           (-90.0 90.0)
  end
  begin
     id 19
     name lradius
     direction 1 -4.48956e-011 9.87925e-027   
     length 3.39961   
     axis 180 -30 -90   XYZ
    dof rx
    limits (-10.0 170.0)
  end
  begin
     id 20
     name lwrist
     direction 1 -4.48985e-011 1.73247e-026   
     length 1.6998   
     axis -9.60847e-015 90 90   XYZ
    dof ry
    limits (-180.0 0.0)
 end
  begin
     id 21 
     name lhand
     direction 1 -4.48798e-011 3.46119e-026   
     length 0.519693   
     axis -2.21073e-014 90 90   XYZ
    dof rx rz
    limits (-90.0 90.0)
           (-45.0 45.0)
  end
  begin
     id 22 
     name lfingers
     direction 1 -4.48938e-011 6.92797e-026   
     length 0.41899   
     axis -4.42155e-014 90 90   XYZ
    dof rx
    limits (0.0 90.0)
  end
  begin
     id 23
     name lthumb
     direction 0.707107 -6.34952e-011 0.707107   
     length 0.601588   
     axis -90 45 6.0103e-014   XYZ
    dof rx rz
    limits (-45.0 45.0)
           (-45.0 45.0)
  end
  begin
     id 24 
     name rclavicle
     direction -0.866736 0.456792 -0.200276   
     length 3.45032  
     axis 0 0 0   XYZ 
    dof ry rz
    limits (-10.0 20.0)
           (-20.0 0.0)
  end
  begin
     id 25 
     name rhumerus
     direction -1 -4.4897e-011 8.65094e-028  
     length 5.32214   
     axis 180 30 90   XYZ
    dof rx ry rz
    limits (-90.0 60.0)
           (-90.0 90.0)
           (-90.0 90.0)
  end
  begin
     id 26 
     name rradius
     direction -1 -4.48987e-011 1.08427e-026   
     length 3.51208   
     axis 180 30 90   XYZ
    dof rx
    limits (-10.0 170.0)
  end
  begin
     id 27 
     name rwrist
     direction -1 -4.48961e-011 1.73222e-026   
     length 1.75604   
     axis -9.60847e-015 -90 -90   XYZ
    dof ry
    limits (-180.0 0.0)
  end
  begin
     id 28
     name rhand
     direction -1 -4.48895e-011 3.46314e-026   
     length 0.586681   
     axis -2.21073e-014 -90 -90   XYZ
    dof rx rz
    limits (-90.0 90.0)
           (-45.0 45.0)
  end
  begin
     id 29
     name rfingers
     direction -1 -4.48968e-011 6.92916e-026   
     length 0.472997   
     axis -4.42155e-014 -90 -90   XYZ
    dof rx
    limits (0.0 90.0)
  end
  begin
     id 30
     name rthumb
     direction -0.707107 -6.34848e-011 0.707107   
     length 0.679133   
     axis -90 -45 -6.0103e-014   XYZ
    dof rx rz
    limits (-45.0 45.0)
           (-45.0 45.0)
  end
:hierarchy
  begin
    root lhipjoint rhipjoint lowerback
    lhipjoint lfemur
    lfemur ltibia
    ltibia lfoot
    lfoot ltoes
    rhipjoint rfemur
    rfemur rtibia
    rtibia rfoot
    rfoot rtoes
    lowerback upperback
    upperback thorax
    thorax lowerneck lclavicle rclavicle
    lowerneck upperneck
    upperneck head
    lclavicle lhumerus
    lhumerus lradius
    lradius lwrist
    lwrist lhand lthumb
    lhand lfingers
    rclavicle rhumerus
    rhumerus rradius
    rradius rwrist
    rwrist rhand rthumb
    rhand rfingers
  end

#!OML:ASF H:\Dans Jumps\Project 1\Capture day 1\Session 1\subject.ASF
:FULLY-SPECIFIED
:DEGREES
1
root 0.496412 17.617 -13.9493 6.75281 -1.75068 -0.999509
lowerback -3.43354 -0.311031 -0.22371
upperback 3.3586 -0.465784 1.27349
thorax 5.4158 -0.26719 1.40807
lowerneck -13.0531 0.66927 -1.94493
upperneck 32.9087 1.071 1.26826
head 13.1802 0.388186 0.994951
rclavicle -2.48481e-015 1.11319e-014
rhumerus -25.5824 -18.592 -77.9514
rradius 24.252
rwrist 34.4812
rhand -17.5262 -27.1765
rfingers 7.12502
rthumb 8.7276 -56.976
lclavicle -2.48481e-015 1.11319e-014
lhumerus -22.4456 1.64144 86.1838
lradius 18.8375
lwrist -1.95469
lhand -23.0633 -1.26274
lfingers 7.12502
lthumb 3.38199 28.6902
rfemur -14.3841 -2.78372 19.6073
rtibia 22.9306
rfoot -14.1122 -3.77573
rtoes 12.5903
lfemur -12.495 6.08739 -18.5227
ltibia 19.1085
lfoot -10.7632 7.18792
ltoes 5.93411
2
root 0.497044 17.6168 -13.9504 6.76561 -1.7138 -0.99898
lowerback -3.44154 -0.325082 -0.235554
upperback 3.36537 -0.484206 1.27826
thorax 5.42815 -0.276958 1.41816
lowerneck -13.0048 0.697371 -1.98027
upperneck 32.8662 1.10161 1.32543
head 13.15 0.405186 1.02706
rclavicle -4.57205e-015 -3.37934e-015
rhumerus -25.4807 -18.3306 -78.1147
rradius 24.3538
rwrist 34.2041
rhand -17.6636 -27.1816
rfingers 7.12502
rthumb 8.59496 -56.9867
lclavicle -4.57205e-015 -3.37934e-015
lhumerus -22.3578 1.50866 86.2953
lradius 18.8816
lwrist -1.83814
lhand -23.0796 -1.38839
lfingers 7.12502
lthumb 3.36624 28.5648
rfemur -14.4013 -2.78699 19.6086
rtibia 22.939
rfoot -14.1131 -3.81273
rtoes 12.5835
lfemur -12.5178 6.05725 -18.524
ltibia 19.1059
lfoot -10.748 7.18379
ltoes 5.90407
3
root 0.498146 17.6169 -13.9497 6.76032 -1.71848 -0.997685
lowerback -3.43795 -0.319555 -0.235012
upperback 3.35564 -0.476493 1.27354
thorax 5.41561 -0.272922 1.41358
lowerneck -13.0305 0.66827 -1.94339
upperneck 32.913 1.06392 1.28202
head 13.1771 0.387061 0.99888
rclavicle -3.27995e-015 5.96354e-016
rhumerus -25.4174 -18.1685 -78.2397
rradius 24.4423
rwrist 34.046
rhand -17.6122 -27.2243
rfingers 7.12502
rthumb 8.64454 -57.0273
lclavicle -3.27995e-015 5.96354e-016
lhumerus -22.3038 1.38683 86.403
lradius 18.9181
lwrist -1.76983
lhand -23.1304 -1.45985
lfingers 7.12502
lthumb 3.31716 28.4941
rfemur -14.3933 -2.79208 19.602
rtibia 22.9414
rfoot -14.1195 -3.80082
rtoes 12.5768
lfemur -12.5093 6.0408 -18.5287
ltibia 19.1011
lfoot -10.7438 7.20179
ltoes 5.89394
4
root 0.499677 17.6167 -13.9487 6.75603 -1.72987 -0.998087
lowerback -3.43564 -0.316325 -0.233639
upperback 3.36173 -0.472074 1.26873
thorax 5.4205 -0.270621 1.40819
lowerneck -13.043 0.668857 -1.92978
upperneck 32.9308 1.06823 1.26161
head 13.1877 0.387754 0.989468
rclavicle -2.73329e-015 -5.36719e-015
rhumerus -25.2948 -18.1158 -78.3628
rradius 24.5012
rwrist 34.0461
rhand -17.5741 -27.1838
rfingers 7.12502
rthumb 8.68137 -56.9853
lclavicle -2.73329e-015 -5.36719e-015
lhumerus -22.2346 1.21225 86.5315
lradius 19.0293
lwrist -1.62153
lhand -23.1938 -1.57603
lfingers 7.12502
lthumb 3.25597 28.3789
rfemur -14.3879 -2.80145 19.596
rtibia 22.9431
rfoot -14.1263 -3.78882
rtoes 12.4923
lfemur -12.4968 6.05234 -18.5347
ltibia 19.0976
lfoot -10.744 7.20544
ltoes 5.89251
5
root 0.500786 17.6167 -13.9482 6.75569 -1.73071 -0.997443
lowerback -3.43575 -0.313844 -0.234599
upperback 3.36231 -0.468466 1.26389
thorax 5.42102 -0.268769 1.404
lowerneck -13.0446 0.664606 -1.92117
upperneck 32.9438 1.06178 1.25543
head 13.1939 0.385063 0.984762
rclavicle -8.39865e-015 5.1684e-015
rhumerus -25.1973 -17.9743 -78.5046
rradius 24.5894
rwrist 33.9296
rhand -17.5747 -27.1732
rfingers 7.12502
rthumb 8.68079 -56.9747
lclavicle -8.39865e-015 5.1684e-015
lhumerus -22.1652 1.03909 86.6571
lradius 19.1207
lwrist -1.48863
lhand -23.2393 -1.63122
lfingers 7.12502
lthumb 3.21198 28.3243
rfemur -14.3864 -2.80482 19.5914
rtibia 22.9443
rfoot -14.1283 -3.78815
rtoes 12.4597
lfemur -12.4916 6.05139 -18.5395
ltibia 19.0906
lfoot -10.7413 7.20783
ltoes 5.88457
6
root 0.501871 17.6167 -13.9476 6.75501 -1.73346 -0.99666
lowerback -3.43588 -0.309893 -0.235314
upperback 3.36255 -0.462863 1.25822
thorax 5.42114 -0.265899 1.39897
lowerneck -13.0415 0.66133 -1.91758
upperneck 32.954 1.05567 1.25637
head 13.1977 0.382875 0.983701
rclavicle -4.22417e-015 9.93923e-016
rhumerus -25.1009 -17.8093 -78.6582
rradius 24.6913
rwrist 33.7846
rhand -17.5865 -27.1636
rfingers 7.12502
rthumb 8.66937 -56.9655
lclavicle -4.22417e-015 9.93923e-016
lhumerus -22.0936 0.847176 86.7896
lradius 19.2236
lwrist -1.33727
lhand -23.2793 -1.65821
lfingers 7.12502
lthumb 3.1734 28.2979
rfemur -14.3822 -2.80655 19.5866
rtibia 22.9406
rfoot -14.1277 -3.78619
rtoes 12.4313
lfemur -12.4884 6.05366 -18.5445
ltibia 19.0896
lfoot -10.7435 7.20959
ltoes 5.87687
